<?xml version="1.0" encoding="UTF-8" standalone="no"?>
<!-- Created with Inkscape (http://www.inkscape.org/) -->

<svg
   xmlns:dc="http://purl.org/dc/elements/1.1/"
   xmlns:cc="http://creativecommons.org/ns#"
   xmlns:rdf="http://www.w3.org/1999/02/22-rdf-syntax-ns#"
   xmlns:svg="http://www.w3.org/2000/svg"
   xmlns="http://www.w3.org/2000/svg"
   xmlns:sodipodi="http://sodipodi.sourceforge.net/DTD/sodipodi-0.dtd"
   xmlns:inkscape="http://www.inkscape.org/namespaces/inkscape"
   id="svg2"
   version="1.1"
   inkscape:version="0.47pre4 r22446"
   width="901"
   height="277"
   sodipodi:docname="Sao_Paulo_Metro.svg">
  <metadata
     id="metadata8">
    <rdf:RDF>
      <cc:Work
         rdf:about="">
        <dc:format>image/svg+xml</dc:format>
        <dc:type
           rdf:resource="http://purl.org/dc/dcmitype/StillImage" />
        <dc:title></dc:title>
      </cc:Work>
    </rdf:RDF>
  </metadata>
  <defs
     id="defs6">
    <inkscape:perspective
       sodipodi:type="inkscape:persp3d"
       inkscape:vp_x="0 : 0.5 : 1"
       inkscape:vp_y="0 : 1000 : 0"
       inkscape:vp_z="1 : 0.5 : 1"
       inkscape:persp3d-origin="0.5 : 0.33333333 : 1"
       id="perspective10" />
    <inkscape:perspective
       id="perspective2828"
       inkscape:persp3d-origin="0.5 : 0.33333333 : 1"
       inkscape:vp_z="1 : 0.5 : 1"
       inkscape:vp_y="0 : 1000 : 0"
       inkscape:vp_x="0 : 0.5 : 1"
       sodipodi:type="inkscape:persp3d" />
  </defs>
  <sodipodi:namedview
     pagecolor="#ffffff"
     bordercolor="#666666"
     borderopacity="1"
     objecttolerance="10"
     gridtolerance="10"
     guidetolerance="10"
     inkscape:pageopacity="0"
     inkscape:pageshadow="2"
     inkscape:window-width="972"
     inkscape:window-height="828"
     id="namedview4"
     showgrid="false"
     inkscape:zoom="0.60044395"
     inkscape:cx="450.5"
     inkscape:cy="138.5"
     inkscape:window-x="0"
     inkscape:window-y="25"
     inkscape:window-maximized="0"
     inkscape:current-layer="svg2" />
  <rect
     style="fill:#ffffff;fill-opacity:1;fill-rule:nonzero"
     id="rect5079"
     width="838"
     height="219"
     x="31"
     y="29" />
  <path
     style="fill:#2c2c7b;fill-opacity:1"
     d="M 31,138.5 31,29 85.245968,29 139.49194,29 93.245968,75.25399 C 67.810685,100.69368 47,121.85094 47,122.27012 c 0,0.41918 3.422796,4.18493 7.606214,8.36835 l 7.606215,7.60622 -8.297305,8.34063 -8.297305,8.34063 46.925396,46.53703 L 139.46861,248 85.234306,248 31,248 31,138.5 z m 157.49024,62.50976 46.98225,-46.99023 -7.7377,-7.78335 -7.73769,-7.78335 7.50145,-7.45139 C 231.62435,126.90318 235,122.85269 235,122.00035 235,121.14802 222.9625,108.43607 208.25,93.751566 193.5375,79.067068 172.95444,58.49067 162.50987,48.026239 L 143.51974,29 197.25987,29 251,29 l 0,109.5 0,109.5 -54.74601,0 -54.74601,0 46.98226,-46.99024 z M 273,138.5 273,29 l 298.5,0 298.5,0 0,109.5 0,109.5 -298.5,0 -298.5,0 0,-109.5 z m 536.07817,65.55757 c 27.29161,-8.42951 43.23109,-39.30799 36.31993,-70.36016 -2.46461,-11.07363 -6.89081,-19.18294 -14.89528,-27.28985 -8.8866,-9.000326 -16.69477,-12.974261 -29.90967,-15.222399 -8.80416,-1.497778 -10.35943,-1.501641 -18.91022,-0.04697 C 768.4861,93.383258 760.25864,97.541339 751.4696,106.40773 739.69679,118.28415 735,130.288 735,148.5 c 0,11.91725 1.96953,20.57712 6.78711,29.84245 6.97092,13.4067 20.61076,23.63886 36.21289,27.16572 8.38792,1.8961 22.35326,1.24425 31.07817,-1.4506 z M 783.5,187.1287 c -9.14911,-2.39329 -16.73491,-9.1309 -21.33959,-18.95355 -2.47225,-5.27378 -2.65933,-6.62994 -2.64518,-19.17515 0.0177,-15.72701 1.72496,-21.58311 8.55368,-29.34094 8.9706,-10.19115 24.08152,-13.24494 36.20027,-7.31579 6.57927,3.21894 11.47088,8.66297 15.30094,17.02893 3.12725,6.8308 4.40293,21.86339 2.57762,30.3745 -2.52866,11.79075 -9.56321,21.46499 -18.35971,25.24914 -5.62853,2.42133 -15.29888,3.43797 -20.28803,2.13286 z M 320.25289,203.25 c 0.20401,-0.4125 0.11807,-18.16598 -0.19098,-39.45217 -0.30905,-21.2862 -0.28946,-38.3862 0.0435,-38 0.44657,0.51791 18.70169,47.91595 29.63774,76.95217 0.33047,0.87741 3.26012,1.25 9.82863,1.25 7.91552,0 9.50327,-0.27176 10.30148,-1.76324 0.51901,-0.96978 7.32612,-18.63228 15.12692,-39.25 7.80079,-20.61772 14.29763,-37.60491 14.43741,-37.74931 0.13978,-0.1444 0.0358,17.5181 -0.23115,39.25 L 398.72117,204 l 10.13942,0 10.13941,0 0,-56 0,-56 -12.47432,0 -12.47432,0 -1.38812,2.75 c -0.76346,1.5125 -8.24529,20.3 -16.62629,41.75 -8.38099,21.45 -15.57283,39.35744 -15.98186,39.7943 -0.40903,0.43687 -6.65737,-14.41313 -13.88519,-33 C 338.94208,124.70744 331.52671,105.675 329.69131,101 l -3.3371,-8.5 -12.9271,0 -12.92711,0 -0.2584,55.75 -0.25839,55.75 9.94938,0 c 5.47216,0 10.11629,-0.3375 10.3203,-0.75 z M 518.5,194.5 l 0,-9 -26.75,-0.26633 -26.75,-0.26634 0,-14.98366 0,-14.98367 23.03753,0 23.03752,0 -0.28752,-9.25 L 510.5,136.5 487.75,136.23123 465,135.96245 465,123.48123 465,111 l 26.53753,0 26.53752,0 -0.28752,-9.25 -0.28753,-9.25 -37,0 -37,0 -0.25981,54.5 c -0.1429,29.975 -0.0424,55.06799 0.22329,55.7622 0.37954,0.9916 8.4747,1.20598 37.75982,1 L 518.5,203.5 l 0,-9 z m 66.74001,-36.75 0.25999,-46.25 15.75,-0.27539 15.75,-0.2754 0,-9.4746 0,-9.47461 -43,0 -43,0 0,9.5 0,9.5 16,0 16,0 0,46.5 0,46.5 10.99001,0 10.99002,0 0.25998,-46.25 z M 654,181 l 0,-23 15.75,0.0997 c 8.6625,0.0548 16.83443,0.40304 18.15985,0.7738 1.32542,0.37077 3.34096,1.92125 4.47899,3.44551 1.82551,2.44508 2.13636,4.67937 2.64005,18.9762 0.44415,12.60672 0.9541,16.92643 2.29669,19.45481 l 1.72578,3.25 12.97432,0 C 719.16156,204 725,203.72191 725,203.38202 c 0,-0.3399 -1.3051,-2.10442 -2.90023,-3.92117 C 718.32505,195.16168 717,188.7106 717,174.63228 c 0,-13.51198 -1.71145,-20.37025 -5.97951,-23.96158 -1.62063,-1.36367 -3.52572,-2.72133 -4.23354,-3.01701 -0.91572,-0.38253 -0.71003,-0.89446 0.71305,-1.77472 6.60148,-4.08338 10.74609,-11.79565 11.3099,-21.0454 C 719.79199,108.72174 711.13921,98.353002 693,93.905233 689.07974,92.943978 679.60128,92.54849 660,92.528311 L 632.5,92.5 632.24019,147 c -0.1429,29.975 -0.0445,55.0625 0.21861,55.75 0.34087,0.89059 3.50654,1.25 11.00982,1.25 L 654,204 l 0,-23 z m 0,-56.01865 0,-14.2203 15.75,0.44718 c 17.24088,0.48952 21.31241,1.51307 25.0821,6.30545 2.69278,3.42331 2.96556,11.3393 0.5194,15.07262 -3.2842,5.01231 -6.4858,5.82373 -24.6015,6.23505 l -16.75,0.38031 0,-14.22031 z M 826.90122,88.44284 C 830.88838,81.685116 830.77001,81.553536 810.08571,69.75 799.72476,63.8375 790.34117,59 789.23329,59 787.44575,59 751.9758,78.74763 749.53117,81.10386 748.26918,82.320215 752.94262,91 754.85952,91 c 0.77071,0 8.61509,-4.125 17.43195,-9.166667 8.81686,-5.041666 16.52067,-9.146522 17.11959,-9.121902 0.59892,0.02462 8.51289,4.37462 17.58662,9.666666 C 816.0714,87.670144 823.78945,92 824.1489,92 c 0.35945,0 1.598,-1.600722 2.75232,-3.55716 z M 154,138.04806 l 0,-65.440394 3.25,3.163878 C 180.69598,98.596228 219,136.97733 219,137.64582 219,138.12196 204.375,153.13135 186.5,171 l -32.5,32.48846 0,-65.4404 z M 95.406641,170.75 C 78.1513,153.5625 64.025803,139.04736 64.016647,138.49414 64.007491,137.94092 78.4,123.09355 96,105.5 l 32,-31.988281 0,64.244141 C 128,173.09014 127.7255,202 127.38999,202 c -0.3355,0 -14.72801,-14.0625 -31.983349,-31.25 z"
     id="path2842" />
</svg>
